<?xml version="1.0" standalone="no"?>
<!DOCTYPE svg PUBLIC "-//W3C//DTD SVG 20010904//EN"
 "http://www.w3.org/TR/2001/REC-SVG-20010904/DTD/svg10.dtd">
<svg version="1.0" xmlns="http://www.w3.org/2000/svg"
 width="734.000000pt" height="734.000000pt" viewBox="0 0 734.000000 734.000000"
 preserveAspectRatio="xMidYMid meet">
<metadata>
Created by potrace 1.11, written by Peter Selinger 2001-2013
</metadata>
<g transform="translate(0.000000,734.000000) scale(0.100000,-0.100000)"
fill="#000000" stroke="none">
<path d="M825 5650 c-5 -9 2 -2104 8 -2145 3 -22 8 -58 11 -80 7 -48 30 -163
46 -225 7 -25 13 -52 15 -60 2 -8 4 -15 5 -15 1 0 3 -7 5 -15 30 -124 209
-470 291 -560 8 -8 32 -37 55 -65 46 -56 174 -189 210 -220 13 -11 49 -41 79
-66 30 -26 96 -72 145 -104 50 -32 102 -66 117 -76 15 -11 30 -19 32 -19 3 0
30 -16 61 -35 30 -20 56 -34 56 -33 1 2 3 739 4 1638 2 899 3 1638 4 1641 1 3
66 5 145 4 134 -2 149 -4 199 -29 30 -14 62 -37 70 -49 8 -12 32 -40 53 -62
22 -22 76 -81 120 -130 45 -50 106 -116 135 -149 30 -32 62 -68 71 -78 27 -32
150 -168 179 -199 14 -15 48 -54 75 -85 27 -31 67 -75 89 -99 22 -23 56 -60
75 -82 35 -40 164 -182 210 -233 14 -15 54 -60 90 -100 36 -40 76 -85 90 -100
40 -44 173 -191 198 -219 l22 -26 63 66 c34 36 103 110 152 164 50 54 118 128
151 164 34 36 72 78 85 92 111 123 183 201 236 258 76 81 84 108 53 191 -12
33 -27 63 -31 66 -5 3 -9 14 -9 25 0 10 -4 19 -10 19 -5 0 -10 5 -10 11 0 10
-97 176 -110 189 -3 3 -30 39 -61 80 -64 85 -195 222 -284 297 -176 147 -355
250 -605 349 -45 17 -205 62 -250 69 -19 3 -42 8 -50 10 -8 2 -35 7 -60 10
-25 3 -58 9 -75 12 -35 8 -2145 11 -2150 3z"/>
<path d="M5644 3200 l0 -1750 392 0 c304 0 393 3 397 13 2 6 3 480 2 1052 -2
1053 -3 1089 -40 1270 -25 123 -84 309 -111 353 -8 12 -12 22 -9 22 8 0 -56
124 -116 227 -114 194 -265 368 -436 504 -41 32 -75 59 -77 59 -1 0 -2 -787
-2 -1750z"/>
<path d="M4713 3083 c-50 -54 -117 -126 -149 -159 -53 -56 -202 -213 -339
-358 -198 -210 -228 -236 -273 -236 -40 0 -81 32 -202 161 -107 113 -234 247
-355 374 -73 76 -229 245 -259 280 l-25 30 -1 -40 c0 -22 -4 -94 -7 -160 -4
-66 -7 -248 -7 -405 -1 -276 0 -286 21 -319 58 -92 243 -273 383 -376 41 -30
80 -59 87 -65 7 -5 15 -10 17 -10 3 0 34 -17 68 -38 165 -99 443 -202 614
-227 21 -4 48 -9 59 -12 11 -3 34 -7 50 -9 17 -1 66 -5 110 -9 116 -10 186
-11 216 -4 15 4 32 3 39 -1 7 -4 20 -5 30 -3 17 5 18 46 18 844 -1 461 -2 839
-3 839 0 0 -42 -44 -92 -97z"/>
</g>
</svg>
