<svg id="Layer_1" data-name="Layer 1" xmlns="http://www.w3.org/2000/svg" viewBox="0 0 291.07 302.04"><defs><style>.cls-1,.cls-2{fill:#4d4d4d;}.cls-2{font-size:48px;font-family:Montserrat-ExtraBold, Montserrat;font-weight:700;}.cls-3{letter-spacing:-0.01em;}</style></defs><title>Marc_logo</title><path class="cls-1" d="M796,309h98.37c37.38,0,73.29,23.79,87.6,58.21.64,1.54.82,4.29-.09,5.3-12.25,13.6-24.72,27-37.29,40.59-10.38-11.48-20.65-22.8-30.87-34.16-13.47-15-26.83-30-40.45-44.87-1.54-1.67-4.4-2.65-6.77-2.91-4.24-.46-8.57-.13-13.29-.13V495.51c-7.18-4.51-13.66-7.78-19.23-12.2-25.39-20.17-38.13-46.55-38-79.11C796.05,372.72,796,341.24,796,309Z" transform="translate(-795.93 -308.96)"/><path class="cls-1" d="M1076.64,519.45h-39.41V344.16a91.17,91.17,0,0,1,23.33,24.27c10.34,15.77,16,33.2,16.24,52,.34,32.15.12,64.32.12,96.47C1076.92,517.6,1076.78,518.25,1076.64,519.45Z" transform="translate(-795.93 -308.96)"/><path class="cls-1" d="M987.83,435.31v84.24a100.5,100.5,0,0,1-31.46-2.75c-21.07-5.26-38.47-16.57-52.29-33.31a8.55,8.55,0,0,1-2-4.86c-.16-14-.09-27.92,1-42.78,1.29,1.58,2.48,3.24,3.87,4.71q16.1,17.06,32.28,34.05c4.72,4.94,7,4.89,11.8-.2q16.35-17.17,32.6-34.44C984.73,438.78,985.82,437.53,987.83,435.31Z" transform="translate(-795.93 -308.96)"/><text class="cls-2" transform="translate(6.73 270.66)">Ma<tspan class="cls-3" x="75.94" y="0">r</tspan><tspan x="96.86" y="0">c Høgh</tspan></text></svg>